<mxfile host="Electron" modified="2024-01-18T03:09:23.153Z" agent="Mozilla/5.0 (X11; Linux x86_64) AppleWebKit/537.36 (KHTML, like Gecko) draw.io/22.1.16 Chrome/120.0.6099.109 Electron/28.1.0 Safari/537.36" etag="AfIo1DjKdcSd_yG88HkV" version="22.1.16" type="device">
  <diagram name="PÃ¡gina-1" id="O7MBfEGZBoNdr1yW5oVu">
    <mxGraphModel dx="1434" dy="907" grid="1" gridSize="10" guides="1" tooltips="1" connect="1" arrows="1" fold="1" page="1" pageScale="1" pageWidth="827" pageHeight="1169" math="0" shadow="0">
      <root>
        <mxCell id="0" />
        <mxCell id="1" parent="0" />
        <mxCell id="3HJj5yRui7-hpwzC4WDt-42" style="edgeStyle=orthogonalEdgeStyle;shape=connector;curved=0;rounded=1;orthogonalLoop=1;jettySize=auto;html=1;labelBackgroundColor=default;strokeColor=#666666;strokeWidth=3;align=center;verticalAlign=middle;fontFamily=Helvetica;fontSize=12;fontColor=#666666;endArrow=openThin;endFill=0;fillColor=#FAE5C7;" parent="1" source="yKTz0fdrUKhPqo3VoGnw-38" target="3HJj5yRui7-hpwzC4WDt-5" edge="1">
          <mxGeometry relative="1" as="geometry" />
        </mxCell>
        <mxCell id="yKTz0fdrUKhPqo3VoGnw-38" value="Start" style="ellipse;whiteSpace=wrap;html=1;aspect=fixed;strokeColor=#666666;fontColor=#666666;fillColor=#FFFFFF;strokeWidth=3;" parent="1" vertex="1">
          <mxGeometry x="352.14" y="609" width="50" height="50" as="geometry" />
        </mxCell>
        <mxCell id="yKTz0fdrUKhPqo3VoGnw-41" value="Check next location" style="rounded=1;whiteSpace=wrap;html=1;strokeColor=#666666;fontColor=#666666;fillColor=#FFFFFF;strokeWidth=3;" parent="1" vertex="1">
          <mxGeometry x="629" y="697" width="120" height="30" as="geometry" />
        </mxCell>
        <mxCell id="yKTz0fdrUKhPqo3VoGnw-42" value="Child Locations or &lt;br&gt;data requirements" style="rhombus;whiteSpace=wrap;html=1;rounded=0;strokeColor=#666666;strokeWidth=3;align=center;verticalAlign=middle;fontFamily=Helvetica;fontSize=11;fontColor=#666666;fillColor=#FFFFFF;spacingTop=-1;" parent="1" vertex="1">
          <mxGeometry x="455.04" y="672" width="138.06" height="80" as="geometry" />
        </mxCell>
        <mxCell id="yKTz0fdrUKhPqo3VoGnw-43" value="" style="edgeStyle=orthogonalEdgeStyle;shape=connector;curved=0;rounded=1;orthogonalLoop=1;jettySize=auto;html=1;labelBackgroundColor=default;strokeColor=#666666;strokeWidth=3;align=center;verticalAlign=middle;fontFamily=Helvetica;fontSize=12;fontColor=#666666;endArrow=openThin;endFill=0;fillColor=#FAE5C7;" parent="1" source="yKTz0fdrUKhPqo3VoGnw-41" edge="1">
          <mxGeometry relative="1" as="geometry">
            <mxPoint x="597.0600000000002" y="712" as="targetPoint" />
          </mxGeometry>
        </mxCell>
        <mxCell id="yKTz0fdrUKhPqo3VoGnw-44" value="Data requirement" style="text;html=1;strokeColor=none;fillColor=none;align=left;verticalAlign=middle;whiteSpace=wrap;rounded=0;fontSize=12;fontFamily=Helvetica;fontColor=#666666;" parent="1" vertex="1">
          <mxGeometry x="533.94" y="749" width="60.06" height="30" as="geometry" />
        </mxCell>
        <mxCell id="yKTz0fdrUKhPqo3VoGnw-45" style="edgeStyle=orthogonalEdgeStyle;shape=connector;curved=0;rounded=1;orthogonalLoop=1;jettySize=auto;html=1;exitX=0.5;exitY=0;exitDx=0;exitDy=0;entryX=0;entryY=0.5;entryDx=0;entryDy=0;labelBackgroundColor=default;strokeColor=#666666;strokeWidth=3;align=center;verticalAlign=middle;fontFamily=Helvetica;fontSize=12;fontColor=#666666;endArrow=openThin;endFill=0;fillColor=#FAE5C7;" parent="1" source="yKTz0fdrUKhPqo3VoGnw-46" target="yKTz0fdrUKhPqo3VoGnw-42" edge="1">
          <mxGeometry relative="1" as="geometry" />
        </mxCell>
        <mxCell id="yKTz0fdrUKhPqo3VoGnw-46" value="Check next child location." style="rounded=1;whiteSpace=wrap;html=1;strokeColor=#666666;fontColor=#666666;fillColor=#FFFFFF;strokeWidth=3;" parent="1" vertex="1">
          <mxGeometry x="294" y="739" width="120" height="40" as="geometry" />
        </mxCell>
        <mxCell id="yKTz0fdrUKhPqo3VoGnw-47" style="edgeStyle=orthogonalEdgeStyle;shape=connector;curved=0;rounded=1;orthogonalLoop=1;jettySize=auto;html=1;labelBackgroundColor=default;strokeColor=#666666;strokeWidth=3;align=center;verticalAlign=middle;fontFamily=Helvetica;fontSize=12;fontColor=#666666;endArrow=openThin;endFill=0;fillColor=#FAE5C7;exitX=0.5;exitY=1;exitDx=0;exitDy=0;" parent="1" source="yKTz0fdrUKhPqo3VoGnw-42" target="yKTz0fdrUKhPqo3VoGnw-46" edge="1">
          <mxGeometry relative="1" as="geometry">
            <Array as="points">
              <mxPoint x="524" y="762" />
            </Array>
          </mxGeometry>
        </mxCell>
        <mxCell id="3HJj5yRui7-hpwzC4WDt-16" style="edgeStyle=orthogonalEdgeStyle;shape=connector;curved=0;rounded=1;orthogonalLoop=1;jettySize=auto;html=1;exitX=1;exitY=0.5;exitDx=0;exitDy=0;labelBackgroundColor=default;strokeColor=#666666;strokeWidth=3;align=center;verticalAlign=middle;fontFamily=Helvetica;fontSize=12;fontColor=#666666;endArrow=openThin;endFill=0;fillColor=#FAE5C7;" parent="1" source="yKTz0fdrUKhPqo3VoGnw-48" target="yKTz0fdrUKhPqo3VoGnw-56" edge="1">
          <mxGeometry relative="1" as="geometry">
            <Array as="points">
              <mxPoint x="771" y="830" />
              <mxPoint x="771" y="634" />
            </Array>
          </mxGeometry>
        </mxCell>
        <mxCell id="3HJj5yRui7-hpwzC4WDt-18" style="edgeStyle=orthogonalEdgeStyle;shape=connector;curved=0;rounded=1;orthogonalLoop=1;jettySize=auto;html=1;labelBackgroundColor=default;strokeColor=#666666;strokeWidth=3;align=center;verticalAlign=middle;fontFamily=Helvetica;fontSize=12;fontColor=#666666;endArrow=openThin;endFill=0;fillColor=#FAE5C7;" parent="1" source="yKTz0fdrUKhPqo3VoGnw-48" target="yKTz0fdrUKhPqo3VoGnw-63" edge="1">
          <mxGeometry relative="1" as="geometry" />
        </mxCell>
        <mxCell id="yKTz0fdrUKhPqo3VoGnw-48" value="Data requirements &lt;br&gt;left to check?" style="rhombus;whiteSpace=wrap;html=1;rounded=0;strokeColor=#666666;strokeWidth=3;align=center;verticalAlign=middle;fontFamily=Helvetica;fontSize=11;fontColor=#666666;fillColor=#FFFFFF;spacingTop=4;" parent="1" vertex="1">
          <mxGeometry x="459.97" y="790" width="128.06" height="80" as="geometry" />
        </mxCell>
        <mxCell id="yKTz0fdrUKhPqo3VoGnw-49" value="" style="edgeStyle=orthogonalEdgeStyle;shape=connector;curved=0;rounded=1;orthogonalLoop=1;jettySize=auto;html=1;labelBackgroundColor=default;strokeColor=#666666;strokeWidth=3;align=center;verticalAlign=middle;fontFamily=Helvetica;fontSize=12;fontColor=#666666;endArrow=openThin;endFill=0;fillColor=#FAE5C7;" parent="1" source="yKTz0fdrUKhPqo3VoGnw-42" target="yKTz0fdrUKhPqo3VoGnw-48" edge="1">
          <mxGeometry relative="1" as="geometry">
            <mxPoint x="524" y="782" as="targetPoint" />
            <Array as="points">
              <mxPoint x="524" y="772" />
              <mxPoint x="524" y="772" />
            </Array>
          </mxGeometry>
        </mxCell>
        <mxCell id="yKTz0fdrUKhPqo3VoGnw-50" value="Child locations" style="text;html=1;strokeColor=none;fillColor=none;align=center;verticalAlign=middle;whiteSpace=wrap;rounded=0;fontSize=12;fontFamily=Helvetica;fontColor=#666666;" parent="1" vertex="1">
          <mxGeometry x="427.65" y="746.5" width="86.35" height="15" as="geometry" />
        </mxCell>
        <mxCell id="3HJj5yRui7-hpwzC4WDt-47" style="edgeStyle=orthogonalEdgeStyle;shape=connector;curved=0;rounded=1;orthogonalLoop=1;jettySize=auto;html=1;entryX=1;entryY=0.5;entryDx=0;entryDy=0;labelBackgroundColor=default;strokeColor=#666666;strokeWidth=3;align=center;verticalAlign=middle;fontFamily=Helvetica;fontSize=12;fontColor=#666666;endArrow=openThin;endFill=0;fillColor=#FAE5C7;" parent="1" source="yKTz0fdrUKhPqo3VoGnw-56" target="3HJj5yRui7-hpwzC4WDt-44" edge="1">
          <mxGeometry relative="1" as="geometry">
            <Array as="points">
              <mxPoint x="689" y="561" />
            </Array>
          </mxGeometry>
        </mxCell>
        <mxCell id="yKTz0fdrUKhPqo3VoGnw-56" value="Locations&lt;br&gt;left to check?" style="rhombus;whiteSpace=wrap;html=1;rounded=0;strokeColor=#666666;strokeWidth=3;align=center;verticalAlign=middle;fontFamily=Helvetica;fontSize=11;fontColor=#666666;fillColor=#FFFFFF;spacingTop=-3;" parent="1" vertex="1">
          <mxGeometry x="634.49" y="602.75" width="109.03" height="62.5" as="geometry" />
        </mxCell>
        <mxCell id="yKTz0fdrUKhPqo3VoGnw-58" style="edgeStyle=orthogonalEdgeStyle;shape=connector;curved=0;rounded=1;orthogonalLoop=1;jettySize=auto;html=1;labelBackgroundColor=default;strokeColor=#666666;strokeWidth=3;align=center;verticalAlign=middle;fontFamily=Helvetica;fontSize=12;fontColor=#666666;endArrow=openThin;endFill=0;fillColor=#FAE5C7;" parent="1" source="yKTz0fdrUKhPqo3VoGnw-56" target="yKTz0fdrUKhPqo3VoGnw-41" edge="1">
          <mxGeometry relative="1" as="geometry" />
        </mxCell>
        <mxCell id="yKTz0fdrUKhPqo3VoGnw-59" value="No" style="text;html=1;strokeColor=none;fillColor=none;align=center;verticalAlign=middle;whiteSpace=wrap;rounded=0;fontSize=12;fontFamily=Helvetica;fontColor=#666666;" parent="1" vertex="1">
          <mxGeometry x="694.5" y="587" width="23.5" height="18.5" as="geometry" />
        </mxCell>
        <mxCell id="yKTz0fdrUKhPqo3VoGnw-60" value="Yes" style="text;html=1;strokeColor=none;fillColor=none;align=center;verticalAlign=middle;whiteSpace=wrap;rounded=0;fontSize=12;fontFamily=Helvetica;fontColor=#666666;" parent="1" vertex="1">
          <mxGeometry x="685" y="663" width="36.25" height="20" as="geometry" />
        </mxCell>
        <mxCell id="yKTz0fdrUKhPqo3VoGnw-104" style="edgeStyle=orthogonalEdgeStyle;shape=connector;curved=0;rounded=1;orthogonalLoop=1;jettySize=auto;html=1;labelBackgroundColor=default;strokeColor=#666666;strokeWidth=3;align=center;verticalAlign=middle;fontFamily=Helvetica;fontSize=12;fontColor=#666666;endArrow=openThin;endFill=0;fillColor=#FAE5C7;" parent="1" source="yKTz0fdrUKhPqo3VoGnw-63" target="yKTz0fdrUKhPqo3VoGnw-69" edge="1">
          <mxGeometry relative="1" as="geometry">
            <Array as="points">
              <mxPoint x="231" y="830" />
            </Array>
          </mxGeometry>
        </mxCell>
        <mxCell id="3HJj5yRui7-hpwzC4WDt-22" style="edgeStyle=orthogonalEdgeStyle;shape=connector;curved=0;rounded=1;orthogonalLoop=1;jettySize=auto;html=1;exitX=0.5;exitY=1;exitDx=0;exitDy=0;entryX=0.5;entryY=0;entryDx=0;entryDy=0;labelBackgroundColor=default;strokeColor=#666666;strokeWidth=3;align=center;verticalAlign=middle;fontFamily=Helvetica;fontSize=12;fontColor=#666666;endArrow=openThin;endFill=0;fillColor=#FAE5C7;" parent="1" source="yKTz0fdrUKhPqo3VoGnw-63" target="yKTz0fdrUKhPqo3VoGnw-65" edge="1">
          <mxGeometry relative="1" as="geometry" />
        </mxCell>
        <mxCell id="yKTz0fdrUKhPqo3VoGnw-63" value="Data Requirement Status?" style="rhombus;whiteSpace=wrap;html=1;rounded=0;strokeColor=#666666;strokeWidth=3;align=center;verticalAlign=middle;fontFamily=Helvetica;fontSize=11;fontColor=#666666;fillColor=#FFFFFF;spacingTop=7;" parent="1" vertex="1">
          <mxGeometry x="308.19" y="798.5" width="128.06" height="63" as="geometry" />
        </mxCell>
        <mxCell id="3HJj5yRui7-hpwzC4WDt-23" style="edgeStyle=orthogonalEdgeStyle;shape=connector;curved=0;rounded=1;orthogonalLoop=1;jettySize=auto;html=1;labelBackgroundColor=default;strokeColor=#666666;strokeWidth=3;align=center;verticalAlign=middle;fontFamily=Helvetica;fontSize=12;fontColor=#666666;endArrow=openThin;endFill=0;fillColor=#FAE5C7;" parent="1" source="yKTz0fdrUKhPqo3VoGnw-65" target="yKTz0fdrUKhPqo3VoGnw-48" edge="1">
          <mxGeometry relative="1" as="geometry" />
        </mxCell>
        <mxCell id="yKTz0fdrUKhPqo3VoGnw-65" value="Nothing to do" style="whiteSpace=wrap;html=1;fontSize=12;fillColor=#FFFFFF;strokeColor=#666666;fontColor=#666666;rounded=1;strokeWidth=3;spacingTop=0;" parent="1" vertex="1">
          <mxGeometry x="312.21999999999997" y="886.75" width="120" height="25.75" as="geometry" />
        </mxCell>
        <mxCell id="yKTz0fdrUKhPqo3VoGnw-68" value="Coherent" style="text;html=1;strokeColor=none;fillColor=none;align=center;verticalAlign=middle;whiteSpace=wrap;rounded=0;fontSize=12;fontFamily=Helvetica;fontColor=#666666;" parent="1" vertex="1">
          <mxGeometry x="383" y="858" width="36.25" height="20" as="geometry" />
        </mxCell>
        <mxCell id="yKTz0fdrUKhPqo3VoGnw-78" style="edgeStyle=orthogonalEdgeStyle;shape=connector;curved=0;rounded=1;orthogonalLoop=1;jettySize=auto;html=1;labelBackgroundColor=default;strokeColor=#666666;strokeWidth=3;align=center;verticalAlign=middle;fontFamily=Helvetica;fontSize=12;fontColor=#666666;endArrow=openThin;endFill=0;fillColor=#FAE5C7;" parent="1" source="yKTz0fdrUKhPqo3VoGnw-69" target="yKTz0fdrUKhPqo3VoGnw-77" edge="1">
          <mxGeometry relative="1" as="geometry" />
        </mxCell>
        <mxCell id="yKTz0fdrUKhPqo3VoGnw-69" value="Count components with coherent state" style="whiteSpace=wrap;html=1;fontSize=12;fillColor=#FFFFFF;strokeColor=#666666;fontColor=#666666;rounded=1;strokeWidth=3;spacingTop=0;" parent="1" vertex="1">
          <mxGeometry x="171" y="881.38" width="120" height="36.5" as="geometry" />
        </mxCell>
        <mxCell id="yKTz0fdrUKhPqo3VoGnw-72" value="Not coherent" style="text;html=1;strokeColor=none;fillColor=none;align=center;verticalAlign=middle;whiteSpace=wrap;rounded=0;fontSize=12;fontFamily=Helvetica;fontColor=#666666;" parent="1" vertex="1">
          <mxGeometry x="238.31" y="807" width="73.91" height="20" as="geometry" />
        </mxCell>
        <mxCell id="3HJj5yRui7-hpwzC4WDt-27" style="edgeStyle=orthogonalEdgeStyle;shape=connector;curved=0;rounded=1;orthogonalLoop=1;jettySize=auto;html=1;exitX=0.5;exitY=0;exitDx=0;exitDy=0;entryX=0;entryY=0.5;entryDx=0;entryDy=0;labelBackgroundColor=default;strokeColor=#666666;strokeWidth=3;align=center;verticalAlign=middle;fontFamily=Helvetica;fontSize=12;fontColor=#666666;endArrow=openThin;endFill=0;fillColor=#FAE5C7;" parent="1" source="yKTz0fdrUKhPqo3VoGnw-83" target="yKTz0fdrUKhPqo3VoGnw-88" edge="1">
          <mxGeometry relative="1" as="geometry">
            <Array as="points">
              <mxPoint x="339" y="981" />
              <mxPoint x="448" y="981" />
            </Array>
          </mxGeometry>
        </mxCell>
        <mxCell id="3HJj5yRui7-hpwzC4WDt-33" style="edgeStyle=orthogonalEdgeStyle;shape=connector;curved=0;rounded=1;orthogonalLoop=1;jettySize=auto;html=1;labelBackgroundColor=default;strokeColor=#666666;strokeWidth=3;align=center;verticalAlign=middle;fontFamily=Helvetica;fontSize=12;fontColor=#666666;endArrow=openThin;endFill=0;fillColor=#FAE5C7;" parent="1" source="yKTz0fdrUKhPqo3VoGnw-83" target="yKTz0fdrUKhPqo3VoGnw-94" edge="1">
          <mxGeometry relative="1" as="geometry" />
        </mxCell>
        <mxCell id="3HJj5yRui7-hpwzC4WDt-34" style="edgeStyle=orthogonalEdgeStyle;shape=connector;curved=0;rounded=1;orthogonalLoop=1;jettySize=auto;html=1;labelBackgroundColor=default;strokeColor=#666666;strokeWidth=3;align=center;verticalAlign=middle;fontFamily=Helvetica;fontSize=12;fontColor=#666666;endArrow=openThin;endFill=0;fillColor=#FAE5C7;exitX=0.5;exitY=1;exitDx=0;exitDy=0;" parent="1" source="yKTz0fdrUKhPqo3VoGnw-83" target="yKTz0fdrUKhPqo3VoGnw-92" edge="1">
          <mxGeometry relative="1" as="geometry">
            <Array as="points">
              <mxPoint x="339" y="1072" />
            </Array>
          </mxGeometry>
        </mxCell>
        <mxCell id="yKTz0fdrUKhPqo3VoGnw-83" value="What was last &lt;br&gt;attemped?" style="rhombus;whiteSpace=wrap;html=1;rounded=0;strokeColor=#666666;strokeWidth=3;align=center;verticalAlign=middle;fontFamily=Helvetica;fontSize=11;fontColor=#666666;fillColor=#FFFFFF;spacingTop=4;" parent="1" vertex="1">
          <mxGeometry x="275.0000000000001" y="993" width="128.06" height="64" as="geometry" />
        </mxCell>
        <mxCell id="3HJj5yRui7-hpwzC4WDt-29" style="edgeStyle=orthogonalEdgeStyle;shape=connector;curved=0;rounded=1;orthogonalLoop=1;jettySize=auto;html=1;labelBackgroundColor=default;strokeColor=#666666;strokeWidth=3;align=center;verticalAlign=middle;fontFamily=Helvetica;fontSize=12;fontColor=#666666;endArrow=openThin;endFill=0;fillColor=#FAE5C7;" parent="1" source="yKTz0fdrUKhPqo3VoGnw-88" target="yKTz0fdrUKhPqo3VoGnw-48" edge="1">
          <mxGeometry relative="1" as="geometry">
            <Array as="points">
              <mxPoint x="740" y="981" />
              <mxPoint x="740" y="900" />
              <mxPoint x="524" y="900" />
            </Array>
          </mxGeometry>
        </mxCell>
        <mxCell id="yKTz0fdrUKhPqo3VoGnw-88" value="&lt;font style=&quot;font-size: 11px;&quot;&gt;Add addition action to vector containing location and data requirement info&lt;/font&gt;" style="rounded=1;whiteSpace=wrap;html=1;strokeColor=#666666;strokeWidth=3;align=center;verticalAlign=middle;fontFamily=Helvetica;fontSize=12;fontColor=#666666;fillColor=#FFFFFF;spacingTop=0;" parent="1" vertex="1">
          <mxGeometry x="492.62" y="960.5" width="225.38" height="40" as="geometry" />
        </mxCell>
        <mxCell id="3HJj5yRui7-hpwzC4WDt-30" style="edgeStyle=orthogonalEdgeStyle;shape=connector;curved=0;rounded=1;orthogonalLoop=1;jettySize=auto;html=1;labelBackgroundColor=default;strokeColor=#666666;strokeWidth=3;align=center;verticalAlign=middle;fontFamily=Helvetica;fontSize=12;fontColor=#666666;endArrow=openThin;endFill=0;fillColor=#FAE5C7;" parent="1" source="yKTz0fdrUKhPqo3VoGnw-94" target="yKTz0fdrUKhPqo3VoGnw-48" edge="1">
          <mxGeometry relative="1" as="geometry">
            <Array as="points">
              <mxPoint x="740" y="1025" />
              <mxPoint x="740" y="900" />
              <mxPoint x="524" y="900" />
            </Array>
          </mxGeometry>
        </mxCell>
        <mxCell id="yKTz0fdrUKhPqo3VoGnw-94" value="Add reconfiguration action to vector containing location and data requirement info" style="whiteSpace=wrap;html=1;fontSize=11;fillColor=#FFFFFF;strokeColor=#666666;fontColor=#666666;rounded=1;strokeWidth=3;spacingTop=0;" parent="1" vertex="1">
          <mxGeometry x="492.62" y="1004.5" width="225.38" height="41" as="geometry" />
        </mxCell>
        <mxCell id="3HJj5yRui7-hpwzC4WDt-31" style="edgeStyle=orthogonalEdgeStyle;shape=connector;curved=0;rounded=1;orthogonalLoop=1;jettySize=auto;html=1;labelBackgroundColor=default;strokeColor=#666666;strokeWidth=3;align=center;verticalAlign=middle;fontFamily=Helvetica;fontSize=12;fontColor=#666666;endArrow=openThin;endFill=0;fillColor=#FAE5C7;" parent="1" source="yKTz0fdrUKhPqo3VoGnw-92" target="yKTz0fdrUKhPqo3VoGnw-48" edge="1">
          <mxGeometry relative="1" as="geometry">
            <Array as="points">
              <mxPoint x="740" y="1072" />
              <mxPoint x="740" y="900" />
              <mxPoint x="524" y="900" />
            </Array>
          </mxGeometry>
        </mxCell>
        <mxCell id="yKTz0fdrUKhPqo3VoGnw-92" value="Add restart action to vector containing location and data requirement info" style="whiteSpace=wrap;html=1;fontSize=11;fillColor=#FFFFFF;strokeColor=#666666;fontColor=#666666;rounded=1;strokeWidth=3;spacingTop=0;" parent="1" vertex="1">
          <mxGeometry x="492.62" y="1051" width="225.38" height="41" as="geometry" />
        </mxCell>
        <mxCell id="3HJj5yRui7-hpwzC4WDt-7" style="edgeStyle=orthogonalEdgeStyle;shape=connector;curved=0;rounded=1;orthogonalLoop=1;jettySize=auto;html=1;labelBackgroundColor=default;strokeColor=#666666;strokeWidth=3;align=center;verticalAlign=middle;fontFamily=Helvetica;fontSize=12;fontColor=#666666;endArrow=openThin;endFill=0;fillColor=#FAE5C7;" parent="1" source="3HJj5yRui7-hpwzC4WDt-5" target="yKTz0fdrUKhPqo3VoGnw-56" edge="1">
          <mxGeometry relative="1" as="geometry" />
        </mxCell>
        <mxCell id="3HJj5yRui7-hpwzC4WDt-48" value="" style="edgeStyle=orthogonalEdgeStyle;shape=connector;curved=0;rounded=1;orthogonalLoop=1;jettySize=auto;html=1;labelBackgroundColor=default;strokeColor=#666666;strokeWidth=3;align=center;verticalAlign=middle;fontFamily=Helvetica;fontSize=12;fontColor=#666666;endArrow=openThin;endFill=0;fillColor=#FAE5C7;" parent="1" source="3HJj5yRui7-hpwzC4WDt-5" target="3HJj5yRui7-hpwzC4WDt-44" edge="1">
          <mxGeometry relative="1" as="geometry" />
        </mxCell>
        <mxCell id="3HJj5yRui7-hpwzC4WDt-5" value="Application&lt;br&gt;Status?" style="rhombus;whiteSpace=wrap;html=1;rounded=0;strokeColor=#666666;strokeWidth=3;align=center;verticalAlign=middle;fontFamily=Helvetica;fontSize=11;fontColor=#666666;fillColor=#FFFFFF;spacingTop=-3;" parent="1" vertex="1">
          <mxGeometry x="469.55000000000007" y="602.75" width="109.03" height="62.5" as="geometry" />
        </mxCell>
        <mxCell id="3HJj5yRui7-hpwzC4WDt-9" value="Coherent" style="text;html=1;strokeColor=none;fillColor=none;align=center;verticalAlign=middle;whiteSpace=wrap;rounded=0;fontSize=12;fontFamily=Helvetica;fontColor=#666666;" parent="1" vertex="1">
          <mxGeometry x="474.00000000000006" y="587" width="36.25" height="20" as="geometry" />
        </mxCell>
        <mxCell id="3HJj5yRui7-hpwzC4WDt-11" value="Not coherent" style="text;html=1;strokeColor=none;fillColor=none;align=center;verticalAlign=middle;whiteSpace=wrap;rounded=0;fontSize=12;fontFamily=Helvetica;fontColor=#666666;" parent="1" vertex="1">
          <mxGeometry x="568.08" y="605.5" width="66.41" height="18" as="geometry" />
        </mxCell>
        <mxCell id="3HJj5yRui7-hpwzC4WDt-25" style="edgeStyle=orthogonalEdgeStyle;shape=connector;curved=0;rounded=1;orthogonalLoop=1;jettySize=auto;html=1;labelBackgroundColor=default;strokeColor=#666666;strokeWidth=3;align=center;verticalAlign=middle;fontFamily=Helvetica;fontSize=12;fontColor=#666666;endArrow=openThin;endFill=0;fillColor=#FAE5C7;" parent="1" source="yKTz0fdrUKhPqo3VoGnw-77" target="yKTz0fdrUKhPqo3VoGnw-88" edge="1">
          <mxGeometry relative="1" as="geometry" />
        </mxCell>
        <mxCell id="3HJj5yRui7-hpwzC4WDt-28" style="edgeStyle=orthogonalEdgeStyle;shape=connector;curved=0;rounded=1;orthogonalLoop=1;jettySize=auto;html=1;entryX=0;entryY=0.5;entryDx=0;entryDy=0;labelBackgroundColor=default;strokeColor=#666666;strokeWidth=3;align=center;verticalAlign=middle;fontFamily=Helvetica;fontSize=12;fontColor=#666666;endArrow=openThin;endFill=0;fillColor=#FAE5C7;" parent="1" source="yKTz0fdrUKhPqo3VoGnw-77" target="yKTz0fdrUKhPqo3VoGnw-83" edge="1">
          <mxGeometry relative="1" as="geometry">
            <Array as="points">
              <mxPoint x="231" y="1025" />
            </Array>
          </mxGeometry>
        </mxCell>
        <mxCell id="yKTz0fdrUKhPqo3VoGnw-77" value="count &amp;lt; required?" style="rhombus;whiteSpace=wrap;html=1;rounded=0;strokeColor=#666666;strokeWidth=3;align=center;verticalAlign=middle;fontFamily=Helvetica;fontSize=11;fontColor=#666666;fillColor=#FFFFFF;spacingTop=-1;" parent="1" vertex="1">
          <mxGeometry x="166.97000000000003" y="951" width="128.06" height="59" as="geometry" />
        </mxCell>
        <mxCell id="3HJj5yRui7-hpwzC4WDt-35" value="Yes" style="text;html=1;strokeColor=none;fillColor=none;align=center;verticalAlign=middle;whiteSpace=wrap;rounded=0;fontSize=12;fontFamily=Helvetica;fontColor=#666666;" parent="1" vertex="1">
          <mxGeometry x="283" y="960.5" width="36.25" height="20" as="geometry" />
        </mxCell>
        <mxCell id="3HJj5yRui7-hpwzC4WDt-36" value="No" style="text;html=1;strokeColor=none;fillColor=none;align=center;verticalAlign=middle;whiteSpace=wrap;rounded=0;fontSize=12;fontFamily=Helvetica;fontColor=#666666;" parent="1" vertex="1">
          <mxGeometry x="236" y="1004.5" width="23.5" height="18.5" as="geometry" />
        </mxCell>
        <mxCell id="3HJj5yRui7-hpwzC4WDt-37" value="Reconfig" style="text;html=1;strokeColor=none;fillColor=none;align=center;verticalAlign=middle;whiteSpace=wrap;rounded=0;fontSize=12;fontFamily=Helvetica;fontColor=#666666;" parent="1" vertex="1">
          <mxGeometry x="359.02" y="980.5" width="36.25" height="20" as="geometry" />
        </mxCell>
        <mxCell id="3HJj5yRui7-hpwzC4WDt-38" value="Restart" style="text;html=1;strokeColor=none;fillColor=none;align=center;verticalAlign=middle;whiteSpace=wrap;rounded=0;fontSize=12;fontFamily=Helvetica;fontColor=#666666;" parent="1" vertex="1">
          <mxGeometry x="408" y="1008" width="36.25" height="20" as="geometry" />
        </mxCell>
        <mxCell id="3HJj5yRui7-hpwzC4WDt-39" value="None or Addition" style="text;html=1;strokeColor=none;fillColor=none;align=center;verticalAlign=middle;whiteSpace=wrap;rounded=0;fontSize=12;fontFamily=Helvetica;fontColor=#666666;" parent="1" vertex="1">
          <mxGeometry x="338" y="1054" width="104.25" height="20" as="geometry" />
        </mxCell>
        <mxCell id="3HJj5yRui7-hpwzC4WDt-41" value="End" style="ellipse;whiteSpace=wrap;html=1;aspect=fixed;strokeColor=#666666;fontColor=#666666;fillColor=#FFFFFF;strokeWidth=3;" parent="1" vertex="1">
          <mxGeometry x="352.14000000000004" y="536" width="50" height="50" as="geometry" />
        </mxCell>
        <mxCell id="3HJj5yRui7-hpwzC4WDt-46" style="edgeStyle=orthogonalEdgeStyle;shape=connector;curved=0;rounded=1;orthogonalLoop=1;jettySize=auto;html=1;labelBackgroundColor=default;strokeColor=#666666;strokeWidth=3;align=center;verticalAlign=middle;fontFamily=Helvetica;fontSize=12;fontColor=#666666;endArrow=openThin;endFill=0;fillColor=#FAE5C7;" parent="1" source="3HJj5yRui7-hpwzC4WDt-44" target="3HJj5yRui7-hpwzC4WDt-41" edge="1">
          <mxGeometry relative="1" as="geometry" />
        </mxCell>
        <mxCell id="3HJj5yRui7-hpwzC4WDt-44" value="Return vector containing actions" style="rounded=1;whiteSpace=wrap;html=1;strokeColor=#666666;fontColor=#666666;fillColor=#FFFFFF;strokeWidth=3;" parent="1" vertex="1">
          <mxGeometry x="440.03999999999996" y="541" width="167.93" height="40" as="geometry" />
        </mxCell>
        <mxCell id="3HJj5yRui7-hpwzC4WDt-50" value="No" style="text;html=1;strokeColor=none;fillColor=none;align=center;verticalAlign=middle;whiteSpace=wrap;rounded=0;fontSize=12;fontFamily=Helvetica;fontColor=#666666;" parent="1" vertex="1">
          <mxGeometry x="578.58" y="807" width="23.5" height="18.5" as="geometry" />
        </mxCell>
        <mxCell id="3HJj5yRui7-hpwzC4WDt-51" value="Yes" style="text;html=1;strokeColor=none;fillColor=none;align=center;verticalAlign=middle;whiteSpace=wrap;rounded=0;fontSize=12;fontFamily=Helvetica;fontColor=#666666;" parent="1" vertex="1">
          <mxGeometry x="442.25" y="806.25" width="36.25" height="20" as="geometry" />
        </mxCell>
      </root>
    </mxGraphModel>
  </diagram>
</mxfile>
